<svg width="40" height="40" viewBox="0 0 40 40" fill="none" xmlns="http://www.w3.org/2000/svg">
<path d="M35.9878 24.7256C35.9791 22.9028 36.0213 21.1039 35.9592 19.3086C35.8461 16.0425 34.6997 13.1457 32.6033 10.6227C30.5867 8.19574 28.0634 6.49214 25.0509 5.50763C22.9633 4.82542 20.8215 4.60783 18.6329 4.82291C15.8859 5.09285 13.3633 5.97961 11.0743 7.50711C7.84404 9.66267 5.73483 12.6223 4.66796 16.3192C4.33876 17.4599 4.16798 18.6272 4.16433 19.8154C4.1597 21.3197 4.16056 22.8241 4.15804 24.3285C4.15783 24.4552 4.16267 24.5839 4.14313 24.7083C4.08846 25.0563 3.79337 25.3012 3.46834 25.2812C3.13202 25.2604 2.86028 25.0044 2.85554 24.6514C2.8428 23.7041 2.84019 22.7566 2.85101 21.8093C2.86304 20.7552 2.8509 19.6983 2.92663 18.648C3.06751 16.694 3.61282 14.8343 4.50982 13.0937C7.0264 8.21022 10.9993 5.11359 16.3939 3.91338C21.3036 2.82105 25.8717 3.75484 30.0189 6.57671C32.1586 8.03264 33.9221 9.86015 35.2066 12.1119C36.5877 14.5328 37.2805 17.1403 37.3087 19.918C37.3245 21.471 37.3152 23.0244 37.3143 24.5776C37.3139 25.1693 36.9105 25.5189 36.4242 25.3547C36.1348 25.2571 36.0217 25.0326 35.9878 24.7256Z" fill="white"/>
<path d="M0.548609 28.8857C0.137867 28.7831 -0.0406907 28.551 0.00774511 28.1827C0.0558539 27.8168 0.29858 27.6307 0.7459 27.6306C4.99706 27.6298 9.24823 27.6305 13.4994 27.6308C13.7537 27.6308 14.008 27.6308 14.341 27.6308C14.1406 27.446 13.9915 27.3038 13.8373 27.1673C13.5215 26.8877 13.1953 26.6192 12.8877 26.3311C12.5616 26.0258 12.5434 25.6685 12.8159 25.3764C13.0548 25.1204 13.4148 25.1179 13.7421 25.3952C14.5359 26.0679 15.3153 26.7574 16.1167 27.4209C16.2596 27.5392 16.4802 27.6223 16.6658 27.6242C18.2438 27.6404 19.8221 27.6379 21.4001 27.6279C21.5421 27.627 21.7103 27.5663 21.8205 27.4776C22.2868 27.1023 22.7338 26.7036 23.1919 26.3182C23.4252 26.1219 23.6888 26.0867 23.961 26.2302C24.1971 26.3547 24.3477 26.5561 24.305 26.8244C24.2808 26.9766 24.183 27.1257 24.0897 27.2562C24.0025 27.3782 23.8774 27.4736 23.7361 27.6133C26.2362 27.6133 28.6899 27.6133 31.2197 27.6133C30.8254 27.2627 30.4777 26.954 30.1305 26.6445C29.9842 26.5141 29.8286 26.3919 29.6959 26.249C29.4477 25.9818 29.4523 25.6368 29.6908 25.3794C29.902 25.1515 30.2498 25.1081 30.5194 25.3306C31.0264 25.749 31.5093 26.1959 32.0024 26.6307C32.0907 26.7086 32.1934 26.7747 32.2665 26.8646C32.8005 27.5211 33.4843 27.6819 34.3219 27.6496C35.9469 27.5869 37.5761 27.6315 39.2035 27.6263C39.5338 27.6252 39.8086 27.701 39.95 28.0307C40.1075 28.3982 39.8775 28.8147 39.4791 28.867C39.3335 28.8862 39.184 28.875 38.9867 28.8789C38.6342 28.8854 38.3312 28.8907 38.0283 28.8961C37.7718 28.8917 37.5153 28.8873 37.2062 28.8836C32.9465 28.8836 28.7395 28.8824 24.5325 28.8827C23.7447 28.8827 22.9569 28.8882 22.1691 28.8912C22.1243 28.8871 22.0795 28.8831 21.9857 28.8806C20.9023 28.882 19.8678 28.8798 18.8334 28.882C17.8291 28.8842 16.8249 28.891 15.8206 28.8957C15.6858 28.8919 15.5509 28.8881 15.3656 28.8864C10.3929 28.8877 5.47076 28.8867 0.548609 28.8857Z" fill="white"/>
<path d="M26.3886 21.525C27.2091 22.2293 28.016 22.9174 28.8198 23.6089C29.2406 23.9709 29.3228 24.3436 29.0574 24.6453C28.7788 24.962 28.3868 24.9502 27.9618 24.585C25.7292 22.6662 23.5011 20.7423 21.2709 18.8209C20.8623 18.4689 20.4444 18.1274 20.0446 17.7661C19.8773 17.6149 19.7445 17.6491 19.5811 17.7535C18.8357 18.2294 18.0879 18.7014 17.339 19.172C17.0828 19.333 16.8196 19.4457 16.5072 19.3045C16.0981 19.1196 15.9913 18.6357 16.3067 18.3141C16.4084 18.2105 16.5331 18.1254 16.6574 18.0478C17.4823 17.533 18.3086 17.0203 19.1372 16.5113C19.7935 16.1081 20.1164 16.1247 20.7055 16.6296C22.4571 18.1308 24.2014 19.6404 25.9486 21.1465C26.0899 21.2683 26.2321 21.389 26.3886 21.525Z" fill="white"/>
<path d="M24.8014 17.1735C24.2102 16.6556 23.6209 16.1657 23.0676 15.6388C22.9159 15.4943 22.7838 15.2338 22.7957 15.0355C22.8259 14.5306 23.3538 14.306 23.7785 14.5918C23.9973 14.739 24.1885 14.9271 24.3891 15.1002C25.4221 15.9916 26.46 16.8777 27.4833 17.78C27.8142 18.0717 28.182 18.197 28.6148 18.191C30.4063 18.1662 30.4301 18.185 31.8026 19.4071C32.4184 19.9554 33.0495 20.4869 33.6626 21.038C33.8035 21.1647 33.9428 21.3252 34.0052 21.4977C34.089 21.7294 34.0194 21.9664 33.8032 22.1237C33.5571 22.3027 33.2827 22.3068 33.0235 22.1712C32.8612 22.0863 32.7218 21.9544 32.5818 21.8327C31.8117 21.163 31.0414 20.4936 30.2781 19.8163C30.0002 19.5697 29.7006 19.4418 29.3159 19.4629C28.9038 19.4856 28.4884 19.459 28.0748 19.4444C27.5462 19.4258 27.1187 19.188 26.7315 18.8444C26.1003 18.2844 25.4558 17.7391 24.8014 17.1735Z" fill="white"/>
<path d="M30.792 32.7565C30.7088 32.9801 30.6275 33.1849 30.5846 33.3972C30.5542 33.5477 30.5826 33.7089 30.5723 33.8646C30.5519 34.1722 30.3137 34.401 29.9968 34.4278C29.7002 34.453 29.4332 34.267 29.3761 33.9629C29.3405 33.7734 29.3527 33.5752 29.3413 33.381C29.335 33.2742 29.3403 33.1633 29.3119 33.062C29.2505 32.8432 29.1248 32.6438 28.8768 32.6499C28.6235 32.656 28.4574 32.8407 28.4373 33.0863C28.404 33.4936 28.4034 33.9038 28.3966 34.313C28.3902 34.6935 28.4054 35.0746 28.3889 35.4545C28.3751 35.773 28.1351 35.9892 27.8125 36.0118C27.5314 36.0314 27.1596 35.8028 27.1554 35.5339C27.1414 34.6287 27.0684 33.7082 27.2023 32.8208C27.3926 31.56 28.856 30.9915 29.9561 31.7422C31.0548 30.9943 32.3338 31.5604 32.7099 32.5772C32.7796 32.7659 32.8221 32.9748 32.8258 33.1753C32.8391 33.8974 32.8359 34.62 32.8278 35.3422C32.8233 35.7395 32.5614 36.0053 32.196 36.0116C31.869 36.0172 31.5784 35.7404 31.5691 35.366C31.5536 34.7418 31.5687 34.117 31.5643 33.4925C31.5631 33.3374 31.557 33.1771 31.5171 33.0287C31.4278 32.6957 31.1089 32.5733 30.792 32.7565Z" fill="white"/>
<path d="M2.08987 31.6233C2.29558 31.2711 2.61159 31.1494 3.01021 31.1677C3.5221 31.1912 4.03851 31.1626 4.54649 31.2164C5.89698 31.3597 6.83621 32.5141 6.72205 33.8495C6.64068 34.8016 5.75944 35.7505 4.72147 35.8874C4.03233 35.9783 3.32555 35.9468 2.62663 35.9479C2.50489 35.9481 2.38297 35.8382 2.23905 35.7719C2.21698 35.7646 2.2161 35.7625 2.2161 35.7625C2.2161 35.7625 2.20957 35.7447 2.19495 35.7207C2.13299 35.5024 2.04732 35.3086 2.04471 35.1138C2.03106 34.0938 2.03648 33.0736 2.04085 32.0535C2.04146 31.91 2.07277 31.7667 2.08987 31.6233ZM5.46202 33.3378C5.16533 32.4876 4.58853 32.3106 3.3368 32.4273C3.3368 33.1857 3.3368 33.9438 3.3368 34.7168C3.67322 34.7168 3.98737 34.7318 4.29958 34.7138C5.08936 34.6683 5.58147 34.0287 5.46202 33.3378Z" fill="white"/>
<path d="M8.23346 31.917C8.30112 31.4712 8.53525 31.1953 8.97139 31.1826C9.76854 31.1594 10.571 31.1418 11.3642 31.2061C12.1975 31.2738 12.8079 31.7345 13.0744 32.5338C13.3363 33.3192 13.1534 34.0162 12.4994 34.5654C12.4866 34.5762 12.4843 34.5995 12.467 34.6413C12.6087 34.7607 12.7534 34.8894 12.9055 35.0089C13.1274 35.1833 13.1896 35.4035 13.0915 35.6593C13.0033 35.8895 12.7013 36.0462 12.4276 35.9778C12.2329 35.9292 12.025 35.8515 11.8745 35.7262C11.483 35.4005 11.1097 35.0512 10.7516 34.6895C10.6446 34.5814 10.5744 34.4063 10.554 34.2533C10.5288 34.0633 10.6312 33.9216 10.8549 33.8969C11.0297 33.8775 11.2093 33.8559 11.3739 33.7989C11.7579 33.6661 11.9727 33.3355 11.9217 32.9968C11.8712 32.6621 11.5609 32.4006 11.1566 32.3902C10.6162 32.3765 10.0752 32.3868 9.50284 32.3868C9.50284 32.7031 9.50268 33.002 9.50287 33.3009C9.50329 33.9454 9.50642 34.5899 9.50361 35.2344C9.50145 35.7289 9.30684 35.9678 8.91136 35.9748C8.5273 35.9817 8.27685 35.7077 8.24071 35.1962C8.23621 34.0708 8.23484 32.9939 8.23346 31.917Z" fill="white"/>
<path d="M25.8463 35.4702C25.7708 35.7813 25.593 35.943 25.2875 35.9714C24.931 36.0046 24.6757 35.8266 24.5549 35.5365C24.4307 35.2383 24.246 35.1959 23.9628 35.205C23.3223 35.2256 22.6807 35.226 22.04 35.2134C21.8056 35.2087 21.6569 35.2583 21.5658 35.492C21.4714 35.7345 21.3037 35.9207 21.0204 35.9799C20.5511 36.0778 20.1203 35.6745 20.2728 35.2264C20.4508 34.7033 20.6901 34.2003 20.9094 33.6914C21.1291 33.1815 21.3389 32.6661 21.5859 32.1691C21.8802 31.5773 22.3579 31.1943 23.0463 31.1906C23.7148 31.187 24.1945 31.5606 24.4665 32.1318C24.9363 33.1189 25.3565 34.1293 25.7914 35.1325C25.8325 35.2274 25.8298 35.341 25.8463 35.4702ZM22.427 33.4333C22.3505 33.6262 22.2741 33.8191 22.1865 34.0403C22.7861 34.0403 23.3336 34.0403 23.9479 34.0403C23.7088 33.5273 23.5005 33.0386 23.2537 32.5697C23.1424 32.3582 22.9487 32.3761 22.8202 32.6017C22.6763 32.8544 22.5706 33.1286 22.427 33.4333Z" fill="white"/>
<path d="M16.2421 34.2057C16.1236 34.5615 16.563 34.9393 16.9814 34.8279C17.2231 34.7636 17.445 34.6224 17.6711 34.5068C17.7754 34.4535 17.8648 34.3722 17.9672 34.3145C18.2511 34.1545 18.4769 34.1797 18.6603 34.3842C18.8353 34.5793 18.8579 34.852 18.6733 35.0837C18.2897 35.5652 17.7976 35.9078 17.1819 36.0136C16.3374 36.1587 15.6482 35.8479 15.2065 35.1386C14.6027 34.1689 14.5698 33.1337 15.1445 32.1427C15.8116 30.9921 17.4146 30.896 18.2496 31.9187C18.6667 32.4296 18.655 33.0619 18.2006 33.542C17.6769 34.0953 17.0194 34.2911 16.2421 34.2057ZM16.7118 32.4448C16.2854 32.5837 16.1746 32.7082 16.1498 33.1077C16.3764 33.0917 16.6134 33.1169 16.8171 33.0471C16.98 32.9913 17.2193 32.8181 17.2174 32.7001C17.2141 32.4895 16.9658 32.445 16.7118 32.4448Z" fill="white"/>
<path d="M12.9727 19.7402C12.3843 19.2347 11.8113 18.7435 11.2214 18.2378C10.8823 18.495 10.5704 18.766 10.2234 18.9813C10.0283 19.1025 9.77783 19.1765 9.54719 19.1907C9.28692 19.2068 9.10975 19.0062 9.03812 18.7713C8.97089 18.5509 8.99272 18.312 9.19441 18.1533C9.74199 17.7225 10.286 17.2855 10.856 16.8853C11.1774 16.6597 11.5009 16.8008 11.7741 17.0318C12.7714 17.8749 13.7656 18.7217 14.7605 19.5678C15.2766 20.0067 15.7947 20.4434 16.3051 20.8886C16.4588 21.0227 16.6139 21.1664 16.7258 21.3336C16.8895 21.5781 16.8325 21.8898 16.6297 22.0843C16.4332 22.2728 16.1044 22.3198 15.8637 22.1869C15.7782 22.1396 15.6961 22.0826 15.6221 22.0191C14.743 21.2654 13.8657 20.5097 12.9727 19.7402Z" fill="white"/>
<path d="M34.5225 31.1599C34.9306 31.0865 35.1588 31.2991 35.3393 31.5915C35.6115 32.0324 35.8807 32.4753 36.1801 32.9646C36.259 32.8479 36.3239 32.7602 36.38 32.6674C36.6176 32.2746 36.8414 31.8732 37.0917 31.4886C37.3216 31.1352 37.6979 31.0439 38.0055 31.2373C38.3095 31.4283 38.3789 31.8039 38.1543 32.1688C37.7852 32.7685 37.3891 33.3523 37.0331 33.9593C36.9215 34.1497 36.877 34.3898 36.8477 34.6131C36.8162 34.8534 36.846 35.101 36.836 35.3449C36.819 35.7604 36.5484 36.0283 36.1728 36.014C35.8134 36.0004 35.5135 35.718 35.5595 35.3332C35.6536 34.5456 35.4003 33.8902 34.9312 33.2758C34.6647 32.9268 34.4415 32.5444 34.2115 32.1693C33.9363 31.7204 34.0299 31.4117 34.5225 31.1599Z" fill="white"/>
<path d="M27.898 10.4664C28.3386 11.282 29.1032 11.6296 30.0011 11.9323C29.3347 12.1515 28.7188 12.3131 28.3385 12.8023C27.9785 13.2654 27.7157 13.8025 27.4054 14.315C27.1003 13.0816 26.305 12.2445 24.9301 11.9456C26.2171 11.5685 27.1467 10.8711 27.4283 9.4559C27.608 9.84332 27.7479 10.1453 27.898 10.4664Z" fill="white"/>
<path d="M10.9972 25.25C10.6027 25.5745 10.2419 25.9107 9.84035 26.1892C9.40837 26.4888 8.87571 26.2455 8.81713 25.749C8.7843 25.4707 8.94543 25.2714 9.14671 25.1025C9.93497 24.4412 10.7247 23.7816 11.5131 23.1203C11.9335 22.7677 12.3412 22.3992 12.775 22.0636C13.1528 21.7714 13.6369 21.8867 13.8184 22.2796C13.9539 22.5729 13.8767 22.8304 13.5357 23.1194C12.6983 23.8291 11.8543 24.5311 10.9972 25.25Z" fill="white"/>
<path d="M11.8904 10.0081C11.9441 9.97923 11.9779 9.94891 12.0143 9.94544C12.1786 9.92977 12.3437 9.9217 12.5086 9.91089C12.4967 10.0631 12.5212 10.2296 12.4666 10.3649C12.2409 10.9241 12.3223 11.5179 12.6986 11.8603C13.0981 12.2238 13.6416 12.2622 14.2134 11.9915C14.3378 11.9327 14.4962 11.9446 14.6389 11.9238C14.6346 12.0882 14.6805 12.2751 14.6175 12.4132C14.2825 13.1477 13.537 13.5315 12.6741 13.4457C11.9083 13.3696 11.2507 12.8208 11.0604 12.0989C10.8391 11.2593 11.1233 10.5304 11.8904 10.0081Z" fill="white"/>
<path d="M24 37.3094C24.1807 36.9417 24.4242 36.8983 24.7043 37.1977C24.9844 37.497 25.2512 37.8084 25.595 38.0962C25.595 37.861 25.5988 37.6257 25.5939 37.3906C25.5892 37.1667 25.6897 37.0321 25.9183 37.0253C26.1547 37.0183 26.2926 37.1504 26.296 37.3806C26.3052 37.9952 26.3132 38.6103 26.2905 39.2241C26.2862 39.3383 26.1581 39.5007 26.0484 39.5435C25.9397 39.5861 25.7415 39.5499 25.6536 39.4708C25.4296 39.269 25.2462 39.0232 25.0445 38.7968C24.9579 38.6996 24.866 38.607 24.7766 38.5123C24.7514 38.5221 24.7262 38.532 24.701 38.5419C24.701 38.7116 24.7011 38.8813 24.701 39.051C24.701 39.3958 24.5669 39.5943 24.3377 39.5889C24.1244 39.5839 24.0008 39.3881 24.003 39.0589C24.0034 39.0004 24.0035 38.9418 24.0042 38.8306C24.003 38.2884 24.0015 37.7989 24 37.3094Z" fill="white"/>
<path d="M20.3566 25.7892C20.1782 26.1343 20.0134 26.4629 19.8142 26.8598C19.5786 25.837 19.0036 25.1857 17.9218 25.0076C18.9348 24.7215 19.624 24.1723 19.8007 23.1191C20.0525 23.5509 20.216 24.0104 20.5302 24.32C20.8482 24.6334 21.3153 24.7983 21.7323 25.0369C21.2492 25.2037 20.7096 25.3151 20.3566 25.7892Z" fill="white"/>
<path d="M8.18407 21.1172C7.62796 20.6649 7.09385 20.2205 6.56216 19.7733C6.40475 19.6409 6.24226 19.5114 6.10313 19.3614C5.8723 19.1126 5.8694 18.7462 6.07656 18.5101C6.28421 18.2735 6.66769 18.2032 6.92954 18.4198C7.58628 18.963 8.2242 19.5293 8.85577 20.1013C9.07798 20.3026 9.07688 20.5786 8.94499 20.8317C8.79041 21.1283 8.51008 21.167 8.18407 21.1172Z" fill="white"/>
<path d="M5.78082 24.8987C5.80438 23.9683 6.31985 23.6644 7.01532 23.5016C7.32924 23.4281 7.61277 23.5959 7.73402 23.8824C7.85612 24.171 7.78105 24.4986 7.47927 24.635C7.06205 24.8236 6.96902 25.119 7.01523 25.5272C7.05104 25.8436 6.99574 26.1423 6.64876 26.2815C6.22409 26.4519 5.80705 26.157 5.77595 25.6583C5.76079 25.4151 5.77733 25.1701 5.78082 24.8987Z" fill="white"/>
<path d="M13.3982 38.483C13.1906 38.5301 13.0013 38.564 12.7733 38.6049C12.7672 38.6493 12.7548 38.7386 12.7348 38.8823C12.9729 38.8823 13.1838 38.8816 13.3947 38.8825C13.6292 38.8835 13.8231 38.9667 13.8135 39.2252C13.8046 39.466 13.6097 39.5352 13.3912 39.5349C13.0761 39.5345 12.7609 39.5355 12.4459 39.5308C12.1481 39.5265 12.0065 39.4 12.0031 39.1056C11.9965 38.5305 12.0013 37.9551 12.0091 37.38C12.0124 37.1381 12.1369 37.001 12.3949 37.002C12.7589 37.0033 13.1229 36.9974 13.4869 37.0014C13.6868 37.0036 13.8395 37.0891 13.8475 37.3052C13.8559 37.5301 13.716 37.6424 13.4985 37.6552C13.3119 37.6661 13.1222 37.6484 12.9384 37.6745C12.8595 37.6856 12.792 37.7756 12.7432 37.8561C13.5047 37.9589 13.6424 38.083 13.3982 38.483Z" fill="white"/>
<path d="M21.3982 38.483C21.1906 38.5301 21.0013 38.564 20.7733 38.6049C20.7672 38.6493 20.7548 38.7386 20.7348 38.8823C20.9729 38.8823 21.1838 38.8816 21.3947 38.8825C21.6292 38.8835 21.8231 38.9667 21.8135 39.2252C21.8046 39.466 21.6097 39.5352 21.3912 39.5349C21.0761 39.5345 20.7609 39.5355 20.4459 39.5308C20.1481 39.5265 20.0065 39.4 20.0031 39.1056C19.9965 38.5305 20.0013 37.9551 20.0091 37.38C20.0124 37.1381 20.1369 37.001 20.3949 37.002C20.7589 37.0033 21.1229 36.9974 21.4869 37.0014C21.6868 37.0036 21.8395 37.0891 21.8475 37.3052C21.8559 37.5301 21.716 37.6424 21.4985 37.6552C21.3119 37.6661 21.1222 37.6484 20.9384 37.6745C20.8595 37.6856 20.792 37.7756 20.7432 37.8561C21.5047 37.9589 21.6424 38.083 21.3982 38.483Z" fill="white"/>
<path d="M16.7771 37.4431C16.9078 37.7388 17.028 38.0152 17.1802 38.3652C17.3123 38.0453 17.4145 37.7924 17.5213 37.5415C17.5707 37.4256 17.6181 37.3065 17.6858 37.201C17.8001 37.0233 17.9709 36.9537 18.1685 37.0487C18.3613 37.1413 18.3947 37.3235 18.3228 37.5007C18.0736 38.1146 17.8217 38.7281 17.5414 39.3284C17.4883 39.4423 17.2984 39.5617 17.1765 39.5568C17.0557 39.552 16.8895 39.4177 16.8325 39.2984C16.5642 38.7365 16.3238 38.1614 16.0795 37.5884C15.9926 37.3846 15.9196 37.1496 16.1863 37.0352C16.4465 36.9235 16.6094 37.0939 16.7169 37.3176C16.7338 37.3528 16.75 37.3883 16.7771 37.4431Z" fill="white"/>
<path d="M33.6057 25.8808C33.1818 25.7942 33.0038 25.6188 33.0071 25.2279C33.0094 24.9644 32.878 24.8322 32.6914 24.6831C32.532 24.5557 32.3554 24.3812 32.3084 24.197C32.1783 23.6877 32.6531 23.3281 33.1755 23.5084C34.0334 23.8046 34.4559 24.6296 34.1904 25.501C34.1082 25.7705 33.908 25.8862 33.6057 25.8808Z" fill="white"/>
<path d="M19.8039 9.18662C19.7298 9.37955 19.6649 9.55233 19.5701 9.80448C19.3787 8.96752 18.9204 8.45541 18.0717 8.2938C18.8752 8.10387 19.4088 7.66329 19.5788 6.82947C19.7741 7.62005 20.2432 8.09718 21.0382 8.28786C20.5377 8.47855 20.034 8.63521 19.8039 9.18662Z" fill="white"/>
<path d="M28.9204 39.5269C28.7029 39.4439 28.6527 39.2929 28.6555 39.0984C28.6623 38.6322 28.6577 38.1659 28.6577 37.6724C28.5362 37.6724 28.4401 37.6734 28.3441 37.6722C28.1075 37.6695 28.0043 37.5218 28.0001 37.316C27.996 37.1179 28.1316 37.0153 28.3248 37.0111C28.7487 37.0019 29.1728 36.9992 29.5968 37.0002C29.8241 37.0008 29.9961 37.1091 29.9934 37.3425C29.9907 37.5735 29.8228 37.6787 29.5919 37.6768C29.5141 37.6762 29.4363 37.6767 29.3519 37.6767C29.3519 38.1583 29.3525 38.6221 29.3517 39.086C29.3511 39.4016 29.2655 39.4942 28.9204 39.5269Z" fill="white"/>
<path d="M11.4615 2.72891C11.0702 2.95775 10.7002 3.18057 10.3235 3.39192C9.97611 3.58688 9.67538 3.52126 9.50509 3.22772C9.35301 2.96555 9.44945 2.65212 9.76771 2.45961C10.1372 2.2361 10.5164 2.02777 10.8964 1.82203C11.235 1.63874 11.4958 1.69009 11.6732 1.95386C11.798 2.13958 11.8005 2.55556 11.4615 2.72891Z" fill="white"/>
<path d="M6.71406 6.77904C6.31778 6.93112 5.97939 6.87908 5.70581 6.57497C5.48026 6.32424 5.4097 6.03283 5.54116 5.71313C5.66988 5.4001 5.99797 5.17984 6.32639 5.19928C6.67485 5.21991 6.94382 5.37805 7.08835 5.70595C7.22563 6.0174 7.15744 6.3811 6.91666 6.62311C6.8622 6.67785 6.79488 6.72003 6.71406 6.77904Z" fill="white"/>
<path d="M33.0907 18.9233C32.6453 18.9596 32.4012 18.8318 32.2823 18.5186C32.1683 18.2179 32.2612 17.9414 32.5602 17.8164C32.8568 17.6923 33.1662 17.5899 33.4791 17.515C33.8031 17.4374 34.0965 17.6215 34.2008 17.9218C34.3059 18.2246 34.1836 18.521 33.8605 18.6635C33.6212 18.769 33.3637 18.8341 33.0907 18.9233Z" fill="white"/>
<path d="M33.2511 4.94725C33.5331 5.46962 33.4 5.9601 32.9329 6.1822C32.522 6.37759 32.0136 6.188 31.8149 5.76532C31.6437 5.40101 31.769 4.95932 32.1087 4.72953C32.4742 4.48232 32.8924 4.55605 33.2511 4.94725Z" fill="white"/>
<path d="M25.0934 24.6655C25.3092 24.5666 25.5027 24.4698 25.704 24.3933C26.0879 24.2473 26.4334 24.3663 26.5847 24.6842C26.7251 24.9795 26.6132 25.2904 26.2681 25.491C26.0575 25.6134 25.8353 25.7254 25.6047 25.8023C25.2452 25.9221 24.9077 25.7675 24.7672 25.4535C24.6301 25.147 24.7276 24.9005 25.0934 24.6655Z" fill="white"/>
<path d="M5.80093 22.1407C5.60405 21.8599 5.5954 21.5895 5.76091 21.3742C5.93287 21.1505 6.19989 21.0798 6.50024 21.2135C6.71356 21.3084 6.91628 21.4321 7.11064 21.5621C7.44256 21.7842 7.53977 22.0747 7.39707 22.357C7.25565 22.6368 6.86873 22.7701 6.52582 22.6101C6.27352 22.4923 6.05209 22.3097 5.80093 22.1407Z" fill="white"/>
<path d="M9.64446 22.4607C9.23838 22.0337 9.32324 21.6129 9.84695 21.3931C10.0356 21.3139 10.2322 21.2448 10.432 21.2018C10.7728 21.1285 11.0871 21.3012 11.1963 21.5966C11.3089 21.901 11.1802 22.2031 10.8342 22.3578C10.4622 22.5242 10.0815 22.7166 9.64446 22.4607Z" fill="white"/>
<path d="M22.1783 28.9116C22.9569 28.8882 23.7447 28.8827 24.5325 28.8827C28.7395 28.8824 32.9465 28.8836 37.1806 28.8903C37.1228 28.9259 37.0378 28.9813 36.9527 28.9814C32.1138 28.9855 27.2749 28.9853 22.436 28.9828C22.3532 28.9828 22.2704 28.9497 22.1783 28.9116Z" fill="white"/>
<path d="M0.562317 28.9087C5.47081 28.8867 10.393 28.8877 15.3415 28.8947C15.2701 28.9289 15.1722 28.9817 15.0743 28.9817C10.3352 28.9857 5.59606 28.9853 0.856925 28.9827C0.763268 28.9826 0.669629 28.9494 0.562317 28.9087Z" fill="white"/>
<path d="M7.07287 17.0442C6.73917 17.1315 6.48153 17.0408 6.3024 16.7826C6.13997 16.5486 6.12189 16.2858 6.27211 16.0387C6.42413 15.7885 6.66464 15.6974 6.95548 15.7345C7.24356 15.7713 7.48566 16.0191 7.52931 16.3224C7.57413 16.6338 7.42664 16.8761 7.07287 17.0442Z" fill="white"/>
<path d="M37.6783 11.4638C37.2255 11.5498 36.9055 11.3559 36.813 10.9591C36.735 10.6247 36.9384 10.3002 37.2882 10.201C37.6183 10.1074 37.9404 10.2694 38.0755 10.5969C38.22 10.9475 38.0834 11.2614 37.6783 11.4638Z" fill="white"/>
<path d="M34.8184 8.14167C34.4781 7.89594 34.4326 7.42811 34.7743 7.10696C35.0298 6.86677 35.4545 6.90257 35.7023 7.17564C35.9039 7.39787 35.9202 7.77484 35.7384 8.01412C35.5334 8.28401 35.2114 8.33438 34.8184 8.14167Z" fill="white"/>
<path d="M24.854 0.23937C25.1323 0.641481 25.0998 1.02387 24.7859 1.23238C24.47 1.44227 24.0402 1.34172 23.8379 1.01056C23.6863 0.762422 23.7376 0.409208 23.9545 0.208565C24.1949 -0.0139544 24.4949 -0.00894321 24.854 0.23937Z" fill="white"/>
<path d="M15.9284 1.64201C15.6661 1.86261 15.4007 1.89921 15.1246 1.72595C14.8856 1.57593 14.777 1.35205 14.8303 1.07516C14.8832 0.800169 15.0636 0.626433 15.3401 0.57056C15.6039 0.517253 15.8294 0.596658 15.9906 0.816786C16.1735 1.06639 16.1567 1.31241 15.9284 1.64201Z" fill="white"/>
<path d="M20.415 0.179531C20.7545 0.675455 20.5853 1.1977 20.0863 1.25686C19.7581 1.29579 19.5028 1.14898 19.3808 0.851247C19.2745 0.591514 19.3577 0.293821 19.5848 0.121168C19.8181 -0.0561623 20.1152 -0.0406332 20.415 0.179531Z" fill="white"/>
<path d="M28.7674 1.76294C29.073 1.84226 29.2514 2.0108 29.2849 2.31008C29.3149 2.57714 29.2298 2.79598 28.9885 2.92785C28.7539 3.05601 28.5161 3.03625 28.2943 2.88393C28.0675 2.72824 27.9826 2.4628 28.0684 2.18705C28.1636 1.88109 28.3369 1.77134 28.7674 1.76294Z" fill="white"/>
<path d="M14.9817 16.993C14.7317 16.6921 14.7071 16.4402 14.8874 16.1857C15.0338 15.9792 15.3185 15.9003 15.5712 15.9961C15.8376 16.0972 15.986 16.3562 15.9541 16.6492C15.9178 16.9821 15.456 17.3346 14.9817 16.993Z" fill="white"/>
<path d="M29.5736 16.911C29.299 16.5778 29.3273 16.1708 29.6196 15.9739C29.8897 15.7919 30.3026 15.8916 30.4592 16.1907C30.5828 16.4269 30.5716 16.6628 30.3765 16.8649C30.1813 17.0669 29.9089 17.0851 29.5736 16.911Z" fill="white"/>
<path d="M29.0416 21.2965C28.7925 20.9211 29.0359 20.4732 29.4136 20.4268C29.6992 20.3917 29.9604 20.5374 30.0521 20.7894C30.1425 21.0378 30.0349 21.3456 29.8107 21.4801C29.5704 21.6242 29.283 21.5618 29.0416 21.2965Z" fill="white"/>
<path d="M18.2126 14.7012C17.8005 14.8114 17.5679 14.729 17.4256 14.4415C17.3102 14.2084 17.3746 13.9211 17.5781 13.7612C17.8297 13.5636 18.1552 13.5921 18.3676 13.8303C18.5958 14.0862 18.5443 14.4092 18.2126 14.7012Z" fill="white"/>
<path d="M2.14275 10.6478C2.55248 10.613 2.78151 10.7417 2.8609 11.0316C2.9327 11.2937 2.81852 11.5644 2.58721 11.6804C2.31222 11.8183 2.00539 11.7271 1.84977 11.4612C1.67731 11.1665 1.77745 10.8672 2.14275 10.6478Z" fill="white"/>
<path d="M3.43946 8.85564C3.66547 8.69201 3.909 8.67395 4.07471 8.85108C4.1979 8.98277 4.30066 9.22456 4.26477 9.38489C4.2295 9.54245 4.02989 9.7083 3.86264 9.78172C3.63619 9.88113 3.43885 9.73345 3.32435 9.53428C3.18862 9.2982 3.22028 9.06685 3.43946 8.85564Z" fill="white"/>
<path d="M15.8365 28.9169C16.8249 28.891 17.8292 28.8842 18.8335 28.882C19.8679 28.8798 20.9023 28.882 21.9641 28.8874C21.9175 28.9234 21.8437 28.9811 21.7697 28.9813C19.8622 28.9861 17.9547 28.9855 16.0473 28.983C15.9823 28.9829 15.9173 28.9537 15.8365 28.9169Z" fill="white"/>
<path d="M2.06846 31.6284C2.07286 31.7667 2.04155 31.91 2.04093 32.0535C2.03656 33.0736 2.03115 34.0938 2.0448 35.1138C2.04741 35.3086 2.13308 35.5024 2.18654 35.7164C1.96251 35.774 1.92596 35.6035 1.925 35.4541C1.91736 34.2635 1.91827 33.0727 1.92625 31.8821C1.9268 31.799 2.00492 31.7164 2.06846 31.6284Z" fill="white"/>
<path d="M8.21262 31.9257C8.23498 32.9939 8.23635 34.0709 8.23296 35.1728C8.19769 35.1341 8.141 35.0705 8.14063 35.0066C8.13503 34.0346 8.13596 33.0626 8.13919 32.0906C8.13936 32.0384 8.17338 31.9864 8.21262 31.9257Z" fill="white"/>
<path d="M20.9665 37.7383C20.9847 38.2099 20.9862 38.6994 20.9827 39.2158C20.9684 38.7473 20.9591 38.2518 20.9665 37.7383Z" fill="white"/>
<path d="M38.0432 28.9175C38.3311 28.8907 38.6341 28.8854 38.9645 28.8855C38.6807 28.9069 38.3694 28.9229 38.0432 28.9175Z" fill="white"/>
<path d="M2.20725 35.7689C2.21665 35.7625 2.21757 35.7646 2.21878 35.7645C2.21261 35.768 2.20523 35.7716 2.20725 35.7689Z" fill="white"/>
</svg>
